<svg width="21" height="21" viewBox="0 0 21 21" fill="none" xmlns="http://www.w3.org/2000/svg">
<path d="M19.75 10.25H17.639M17.639 10.25C17.639 12.2098 16.861 14.0889 15.4752 15.4747C14.0894 16.8605 12.2098 17.639 10.25 17.639M17.639 10.25C17.639 8.29018 16.861 6.41013 15.4752 5.02433C14.0894 3.63853 12.2098 2.861 10.25 2.861M10.25 0.75V2.861M10.25 2.861C8.29032 2.861 6.41089 3.63848 5.02519 5.02419C3.63948 6.40989 2.861 8.28931 2.861 10.249C2.861 12.2087 3.63948 14.0881 5.02519 15.4738C6.41089 16.8595 8.29032 17.639 10.25 17.639M0.75 10.25H2.861M10.25 19.75V17.639" stroke="#9A0003" stroke-width="1.5" stroke-miterlimit="10" stroke-linecap="round"/>
<path d="M10.2493 14.4723C11.3691 14.4723 12.443 14.0275 13.2347 13.2357C14.0265 12.4439 14.4713 11.3701 14.4713 10.2503C14.4713 9.13058 14.0265 8.05669 13.2347 7.26492C12.443 6.47314 11.3691 6.02832 10.2493 6.02832C9.1296 6.02832 8.05572 6.47314 7.26394 7.26492C6.47216 8.05669 6.02734 9.13058 6.02734 10.2503C6.02734 11.3701 6.47216 12.4439 7.26394 13.2357C8.05572 14.0275 9.1296 14.4723 10.2493 14.4723Z" stroke="#9A0003" stroke-width="1.5" stroke-miterlimit="10" stroke-linecap="round"/>
</svg>
